<?xml version="1.0" standalone="no"?>
<!DOCTYPE svg PUBLIC "-//W3C//DTD SVG 20010904//EN"
 "http://www.w3.org/TR/2001/REC-SVG-20010904/DTD/svg10.dtd">
<svg version="1.0" xmlns="http://www.w3.org/2000/svg"
 width="550.000000pt" height="550.000000pt" viewBox="0 0 550.000000 550.000000"
 preserveAspectRatio="xMidYMid meet">
<metadata>
Created by potrace 1.14, written by Peter Selinger 2001-2017
</metadata>
<g transform="translate(0.000000,550.000000) scale(0.100000,-0.100000)"
fill="#000000" stroke="none">
<path d="M2629 4037 c-2 -3 -30 -7 -62 -11 -241 -25 -518 -161 -711 -349 -256
-250 -384 -543 -391 -892 -5 -263 42 -456 168 -680 112 -198 309 -387 520
-498 70 -37 200 -87 272 -106 39 -10 54 -13 160 -31 52 -9 314 -6 375 5 62 11
218 55 262 74 192 83 305 158 438 291 107 107 179 205 244 336 42 85 90 214
100 268 3 15 7 34 10 44 13 47 20 130 21 252 0 150 -8 228 -30 310 -9 30 -18
62 -20 70 -66 244 -253 511 -469 668 -113 83 -278 167 -378 192 -18 5 -58 16
-88 24 -30 8 -73 18 -95 21 -49 8 -319 17 -326 12z m281 -21 c216 -25 483
-139 645 -276 300 -253 464 -594 470 -980 6 -476 -269 -929 -695 -1143 -255
-129 -503 -169 -774 -126 -280 45 -512 164 -710 363 -160 162 -272 355 -330
573 -27 101 -40 212 -39 338 2 396 188 761 512 1007 168 128 419 228 613 244
40 4 74 7 75 8 6 5 175 -2 233 -8z"/>
<path d="M2649 3996 c-2 -2 -29 -6 -59 -10 -167 -19 -336 -78 -493 -173 -312
-187 -538 -536 -585 -902 -11 -88 -7 -299 8 -376 22 -120 45 -191 101 -315
129 -284 408 -539 707 -645 152 -53 285 -74 462 -69 194 4 364 48 538 140 128
67 195 116 299 218 168 167 285 375 338 603 24 102 29 156 29 298 -2 588 -425
1096 -1008 1211 -71 14 -327 29 -337 20z m172 -27 c288 -10 581 -142 793 -357
103 -105 162 -186 226 -312 304 -602 65 -1331 -536 -1637 -126 -64 -232 -98
-399 -128 -36 -6 -250 -7 -285 -1 -14 3 -46 7 -72 11 -73 9 -215 52 -303 92
-351 161 -610 481 -689 853 -24 113 -27 146 -27 260 -1 525 326 981 832 1158
96 34 354 77 389 65 3 -1 35 -3 71 -4z"/>
<path d="M2849 3821 c0 -9 -2 -23 -4 -31 -1 -8 -6 -33 -9 -55 -3 -22 -9 -52
-12 -66 -5 -24 -2 -27 38 -33 24 -4 58 -9 76 -12 28 -5 32 -3 32 15 0 14 -8
22 -25 26 -14 3 -36 7 -50 10 -17 4 -23 10 -18 21 4 12 14 14 44 9 35 -6 39
-5 39 14 0 12 -4 22 -10 22 -5 1 -14 3 -20 4 -5 1 -17 3 -26 4 -9 1 -14 8 -12
19 2 9 8 16 14 15 72 -12 82 -12 87 1 9 24 -7 33 -75 43 -59 8 -68 7 -69 -6z"/>
<path d="M2533 3763 c12 -125 17 -142 41 -137 11 2 46 7 76 10 65 7 69 9 65
32 -2 14 -12 17 -63 14 l-61 -2 -7 57 c-4 32 -8 63 -8 68 -1 6 -12 12 -25 13
-23 4 -24 2 -18 -55z"/>
<path d="M2278 3731 c-21 -10 -40 -20 -43 -23 -3 -3 13 -44 35 -92 37 -80 42
-86 61 -76 13 8 18 17 14 30 -4 14 2 23 24 35 38 19 53 46 47 82 -11 59 -68
77 -138 44z m88 -46 c8 -20 -13 -45 -37 -45 -23 0 -36 39 -18 51 22 14 49 10
55 -6z"/>
<path d="M3322 3618 c-20 -20 -14 -52 17 -88 28 -34 31 -60 6 -60 -16 0 -47
35 -38 43 6 7 -25 36 -39 37 -5 0 -8 -14 -8 -31 0 -44 47 -89 94 -89 65 0 79
67 25 116 -10 9 -19 23 -19 31 0 22 28 15 46 -12 9 -14 25 -30 35 -36 32 -17
24 37 -10 72 -32 31 -86 40 -109 17z"/>
<path d="M2065 3581 c-26 -8 -95 -63 -95 -76 0 -6 28 -41 61 -78 59 -65 62
-67 80 -51 17 15 18 19 4 34 -8 9 -15 19 -15 22 0 12 31 17 54 8 19 -7 28 -4
47 16 l22 24 -24 0 c-29 0 -54 14 -46 26 18 31 -48 87 -88 75z m37 -57 c10
-10 -3 -40 -22 -52 -16 -10 -21 -9 -30 9 -9 15 -8 24 1 35 11 14 41 19 51 8z"/>
<path d="M2640 3453 c-45 -7 -110 -25 -144 -39 -33 -14 -69 -28 -78 -31 -33
-10 -18 -20 30 -20 26 -1 83 8 126 19 128 33 256 30 376 -7 41 -13 170 -27
170 -19 0 9 -121 64 -172 78 -87 26 -213 33 -308 19z"/>
<path d="M3525 3374 c-39 -26 -72 -48 -74 -50 -2 -2 0 -13 5 -24 9 -18 11 -18
42 -3 18 9 35 14 37 11 2 -2 -2 -24 -9 -48 -12 -40 -11 -48 5 -74 l17 -29 21
70 21 70 55 -12 c30 -7 55 -10 55 -6 0 22 -32 44 -80 55 l-55 12 33 17 c35 19
38 27 20 45 -17 17 -15 17 -93 -34z"/>
<path d="M1852 3368 c-20 -20 -13 -32 34 -57 50 -27 70 -61 54 -90 -16 -30
-45 -30 -101 0 -29 16 -54 29 -55 29 -2 0 -8 -9 -14 -20 -9 -17 -4 -23 42 -50
67 -38 119 -40 153 -6 57 57 37 127 -51 177 -39 22 -53 26 -62 17z"/>
<path d="M2255 2763 c0 -312 3 -572 7 -578 5 -8 211 -12 296 -6 9 1 12 43 10
186 -1 101 1 187 4 190 3 3 21 7 39 9 185 19 340 91 423 196 69 87 88 208 47
294 -44 89 -160 184 -283 230 -100 38 -106 39 -333 43 l-210 5 0 -569z m522
337 c78 -36 115 -87 116 -159 2 -103 -78 -161 -240 -177 -50 -5 -63 -3 -64 7
-3 33 -5 365 -3 370 7 13 133 -14 191 -41z"/>
<path d="M2603 3091 c-1 -16 9 -22 55 -32 104 -21 152 -59 152 -119 0 -26 -7
-43 -24 -59 -23 -22 -110 -51 -153 -51 -18 0 -23 -6 -23 -24 0 -29 15 -30 105
-9 111 27 158 75 149 152 -9 67 -63 118 -153 145 -75 22 -106 21 -108 -3z"/>
<path d="M2610 3012 c0 -28 2 -30 51 -34 101 -10 102 -67 2 -71 -45 -2 -52 -5
-56 -25 -6 -29 4 -34 50 -27 67 12 103 26 118 48 41 59 -11 112 -127 133 -37
6 -38 5 -38 -24z"/>
<path d="M2604 2943 c2 -14 11 -18 45 -17 72 2 71 21 -2 30 -40 5 -45 4 -43
-13z"/>
<path d="M2913 3298 c90 -49 181 -138 219 -215 27 -56 32 -76 31 -134 -2 -199
-153 -354 -407 -419 -44 -11 -90 -20 -103 -20 l-23 0 0 -164 0 -164 25 -4 c13
-3 27 -3 30 0 3 3 5 68 5 144 0 76 3 138 8 139 58 6 155 31 209 55 109 47 235
150 288 234 93 148 60 357 -79 488 -71 68 -124 92 -201 92 l-60 -1 58 -31z"/>
<path d="M3088 3281 c66 -53 109 -106 132 -166 l19 -50 0 61 c1 52 -4 68 -30
107 -44 67 -73 87 -126 87 l-45 0 50 -39z"/>
<path d="M3196 3288 c16 -18 32 -37 36 -42 5 -6 8 9 8 32 0 42 0 42 -37 42
l-37 0 30 -32z"/>
<path d="M2179 3175 c-187 -257 -188 -594 -1 -849 l37 -51 3 41 c2 33 -4 52
-28 90 -124 196 -126 477 -5 678 29 47 35 67 33 100 l-3 41 -36 -50z"/>
<path d="M3279 3218 c-9 -44 -1 -79 29 -123 127 -194 129 -478 5 -682 -19 -31
-30 -64 -31 -93 l-3 -45 30 35 c17 19 49 70 71 112 107 203 109 437 5 643 -41
83 -102 171 -106 153z"/>
<path d="M3724 3080 c-30 -38 -49 -53 -80 -61 -39 -10 -41 -13 -35 -37 8 -29
11 -30 57 -19 23 6 48 1 96 -17 l66 -24 -7 26 c-5 19 -21 33 -50 47 l-42 21
25 23 c26 24 36 74 17 85 -4 3 -26 -17 -47 -44z"/>
<path d="M1733 3055 c-24 -10 -32 -22 -42 -61 -7 -27 -15 -55 -17 -61 -3 -12
6 -15 128 -46 54 -13 58 -13 63 4 7 23 -1 39 -20 39 -10 0 -12 7 -5 29 6 21 4
39 -8 62 -20 39 -57 52 -99 34z m59 -51 c3 -3 3 -17 -1 -32 -6 -21 -13 -26
-32 -24 -31 5 -31 5 -20 36 10 24 39 35 53 20z"/>
<path d="M3221 2752 c-45 -87 -182 -206 -301 -260 -61 -27 -147 -52 -182 -52
l-28 0 0 -135 0 -135 30 0 30 0 0 105 0 104 43 11 c215 55 316 119 404 252 19
29 28 55 30 94 1 30 0 54 -2 54 -3 0 -13 -17 -24 -38z"/>
<path d="M3211 2585 c-62 -86 -171 -152 -328 -199 l-78 -23 0 -93 0 -93 27 -4
c33 -4 37 2 43 72 2 32 5 58 7 59 2 1 44 14 93 30 109 34 176 71 233 127 41
41 42 44 42 106 0 34 -1 63 -3 63 -2 0 -18 -20 -36 -45z"/>
<path d="M1785 2608 c-120 -30 -116 -28 -113 -51 2 -16 9 -21 25 -20 17 2 24
-4 29 -25 13 -54 58 -81 105 -62 43 18 54 50 40 115 -14 60 -15 61 -86 43z
m45 -79 c0 -9 -7 -23 -16 -30 -14 -11 -18 -10 -30 6 -21 28 -17 53 9 57 24 4
37 -8 37 -33z"/>
<path d="M3636 2597 c-6 -25 10 -67 25 -67 4 0 9 -7 13 -15 4 -11 -6 -20 -33
-31 -34 -13 -50 -34 -51 -66 0 -4 28 5 61 18 52 21 68 24 105 16 34 -7 44 -7
44 3 0 8 3 20 6 28 4 12 -5 18 -33 26 -26 7 -52 27 -84 62 l-46 53 -7 -27z"/>
<path d="M3210 2434 c-45 -44 -146 -96 -237 -123 -62 -18 -73 -25 -74 -44 0
-12 -2 -37 -3 -54 -2 -19 1 -34 8 -35 34 -4 42 -3 52 4 7 5 10 17 7 28 -6 21
3 24 92 35 59 7 142 45 174 78 19 21 22 34 19 84 l-3 60 -35 -33z"/>
<path d="M1870 2353 c-64 -38 -72 -49 -78 -98 -4 -40 -1 -47 28 -75 42 -39 79
-39 148 0 54 32 57 36 43 59 -8 13 -18 11 -60 -13 -55 -29 -88 -31 -104 -5
-19 30 0 63 52 93 42 25 48 32 40 48 -13 23 -15 23 -69 -9z"/>
<path d="M3530 2306 c-10 -19 -10 -37 -3 -75 l10 -49 -34 16 c-30 14 -35 14
-43 2 -6 -8 -10 -17 -10 -20 0 -3 36 -28 79 -57 58 -38 81 -49 90 -40 16 16
14 31 -9 45 -30 18 -25 42 8 42 46 0 69 11 81 36 l10 24 -69 -6 c-39 -4 -70
-5 -70 -3 -9 92 -22 118 -40 85z"/>
<path d="M3222 2287 c-22 -26 -104 -59 -172 -69 -59 -9 -70 -14 -70 -29 0 -18
8 -19 132 -17 l133 3 0 58 c1 61 -5 76 -23 54z"/>
<path d="M2401 2129 c32 -24 148 -66 217 -79 82 -14 188 -14 260 1 31 6 63 12
69 13 21 3 153 61 153 67 0 11 -107 7 -150 -7 -133 -40 -301 -38 -415 6 -16 6
-58 12 -92 13 -59 2 -62 1 -42 -14z"/>
<path d="M2022 2063 c-57 -63 -60 -69 -45 -85 15 -17 18 -17 34 -2 24 21 42 8
37 -27 -3 -21 2 -35 19 -51 l23 -21 0 20 c0 34 11 53 31 53 27 0 59 39 59 73
0 20 -12 40 -40 68 -21 21 -43 39 -48 39 -5 0 -36 -30 -70 -67z m108 -38 c0
-7 -6 -18 -14 -24 -10 -9 -19 -7 -37 8 -24 19 -24 19 -5 40 18 20 20 20 38 5
10 -10 18 -23 18 -29z"/>
<path d="M3294 2036 c-37 -37 -43 -66 -18 -90 20 -20 28 -20 86 1 26 9 51 13
55 9 14 -13 -14 -41 -45 -44 -41 -4 -60 -27 -34 -41 37 -19 94 4 116 47 16 33
13 62 -10 79 -24 18 -38 16 -85 -7 -36 -19 -40 -19 -46 -4 -5 14 16 37 37 39
18 2 42 24 36 34 -14 22 -58 11 -92 -23z"/>
<path d="M2266 1876 c-20 -47 -36 -87 -36 -89 0 -14 35 -15 51 -1 13 12 22 13
38 5 32 -17 60 -13 86 14 30 29 34 85 8 106 -19 16 -88 49 -102 49 -5 0 -25
-38 -45 -84z m109 -17 c0 -28 -23 -35 -49 -16 -15 11 -17 17 -7 35 15 29 56
15 56 -19z"/>
<path d="M2546 1838 c-4 -18 -9 -63 -12 -99 -5 -52 -3 -66 7 -66 8 0 44 -4 82
-8 57 -5 68 -4 73 10 4 9 4 18 2 21 -6 6 -43 13 -82 16 -36 3 -39 12 -28 79
10 65 7 79 -18 79 -12 0 -20 -10 -24 -32z"/>
<path d="M2909 1866 c-3 -3 -46 -11 -87 -16 -2 0 -1 -8 2 -17 3 -10 7 -35 10
-55 12 -81 18 -113 21 -116 1 -1 35 3 74 9 57 10 71 15 69 28 -3 13 -15 15
-57 13 -46 -2 -52 -1 -49 15 3 18 7 19 48 22 14 1 20 8 20 25 0 22 -3 23 -40
16 -35 -6 -40 -5 -40 11 0 12 8 19 20 20 11 1 25 3 30 4 6 1 17 3 25 4 8 0 15
10 15 21 0 15 -7 20 -28 20 -16 0 -31 -2 -33 -4z"/>
</g>
</svg>
