<svg xmlns:mydata="http://www.w3.org/2000/svg" mydata:contrastcolor="271d3b" mydata:template="Contrast" mydata:presentation="2.5" mydata:layouttype="undefined" mydata:specialfontid="undefined" mydata:id1="161" mydata:id2="161" mydata:companyname="purple sky" mydata:companytagline="" version="1.1" xmlns="http://www.w3.org/2000/svg" xmlns:xlink="http://www.w3.org/1999/xlink" viewBox="0 0 550 470" class="svg-image-fade"><defs style="fill: rgb(255, 255, 255);"><linearGradient x1="146" y1="235" x2="404" y2="235" gradientUnits="userSpaceOnUse" id="color-1852268620" style="fill: rgb(255, 255, 255);"><stop offset="0" stop-color="#8360c3" style="fill: rgb(255, 255, 255);"></stop><stop offset="1" stop-color="#2ebf91" style="fill: rgb(255, 255, 255);"></stop></linearGradient></defs><g fill="url(#color-1852268620)" fill-rule="none" stroke="none" stroke-width="1" stroke-linecap="butt" stroke-linejoin="miter" stroke-miterlimit="10" stroke-dasharray="" stroke-dashoffset="0" font-family="none" font-weight="none" font-size="none" text-anchor="none" style="mix-blend-mode: normal; fill: rgb(255, 255, 255);"><g data-paper-data="{&quot;isGlobalGroup&quot;:true,&quot;bounds&quot;:{&quot;x&quot;:146.00000000000003,&quot;y&quot;:106.00000000000003,&quot;width&quot;:258,&quot;height&quot;:258}}" style="fill: rgb(255, 255, 255);"><g data-paper-data="{&quot;isIcon&quot;:&quot;true&quot;,&quot;iconType&quot;:&quot;icon&quot;,&quot;rawIconId&quot;:&quot;274bbdb6-15bb-4a91-81e4-c7cc6a9f56e8&quot;,&quot;selectedEffects&quot;:{&quot;container&quot;:&quot;enclosed_circle_outline3&quot;,&quot;transformation&quot;:&quot;&quot;,&quot;pattern&quot;:&quot;&quot;},&quot;isDetailed&quot;:false,&quot;fillRule&quot;:&quot;nonzero&quot;,&quot;blockLetter&quot;:&quot;O&quot;,&quot;blockLetterId&quot;:0,&quot;relativeBoundsIconToContainer&quot;:{&quot;top&quot;:5.18341872744926e-7,&quot;left&quot;:0.0023102506593814837},&quot;widthRatioIconToContainer&quot;:0.6988634934327206,&quot;heightRatioIconToContainer&quot;:0.8120689339400928,&quot;bounds&quot;:{&quot;x&quot;:203.77277644859157,&quot;y&quot;:163.77277644859157,&quot;width&quot;:142.45471420540605,&quot;height&quot;:142.45471420540605},&quot;iconStyle&quot;:&quot;standalone&quot;,&quot;suitableAsStandaloneIcon&quot;:true}" fill-rule="evenodd" style="fill: rgb(255, 255, 255);"><g data-paper-data="{&quot;isPathIcon&quot;:true}" style="fill: rgb(255, 255, 255);"><path d="M275.00013,163.77278c-9.65988,0 -18.90179,1.8672 -27.72573,5.59921c-2.97465,1.2575 -5.83023,2.69719 -8.56791,4.3167h12.49879c7.59739,-2.95798 15.52941,-4.43697 23.79485,-4.43697c8.35118,0 16.36179,1.50995 24.03301,4.52986l10.38866,0.61446l2.45189,-0.04882h0.13456l0.38821,0.00714c-3.07111,-1.89339 -6.29464,-3.55458 -9.6706,-4.98237c-8.82393,-3.73201 -18.06584,-5.59921 -27.72573,-5.59921z" style="fill: rgb(255, 255, 255);"></path><path d="M259.28496,253.84239c7.73434,-0.98718 14.15164,-1.97437 20.57012,-4.11426l0.16433,-0.16433c7.89867,-2.79722 14.4803,-6.4173 19.41742,-11.02575c5.75878,-5.26578 9.38004,-11.84741 10.53156,-19.08756c0.32866,-1.81004 0.493,-3.62007 0.493,-5.4313c0,-6.25297 -3.45455,-13.16445 -9.54318,-19.25308c-9.87423,-9.87304 -25.17738,-16.45467 -39.98754,-17.60738h-35.37909v115.18983h31.26483c0,-10.36723 -0.16433,-34.3919 -0.16433,-35.54461v-2.63289zM260.27214,234.09511l-1.31585,0.16552l-0.32986,-1.31704c0,-0.493 -0.16433,-11.35441 -0.16433,-13.82297v-23.69601l1.64571,0.16433c8.88586,0.49419 29.62031,3.62127 29.62031,21.22864c0,1.97437 -0.49419,3.94874 -1.31704,5.75878c-2.1387,4.44293 -6.91149,7.73434 -14.15164,9.70871c-2.63289,0.65852 -5.43011,1.15271 -8.39167,1.48137c-1.31704,0.16433 -2.63289,0.16433 -3.7856,0.16433c-0.65852,0 -1.81004,0.16433 -1.81004,0.16433z" style="fill: rgb(255, 255, 255);"></path><path d="M269.158,264.70261l0.32986,-1.15152h1.15152c13.65864,-0.98718 27.64594,-7.24015 39.49335,-17.77171c10.53156,-9.21571 14.48149,-17.60738 14.97449,-31.92454h-0.16433c-0.32866,-3.94874 -2.96155,-16.78453 -9.70871,-24.18901c-6.08863,-6.74715 -11.51875,-10.53156 -17.77171,-12.50712h-12.17727c7.73434,3.29141 14.64463,7.89867 20.07594,13.32997c7.40448,7.40448 11.35441,15.63182 11.35441,23.69601c0,2.1387 -0.16552,4.2786 -0.49419,6.25297c-1.31585,8.55719 -5.59444,16.45586 -12.50593,22.70883c-5.59564,5.10145 -12.83579,9.21452 -21.55731,12.17727c-6.25297,2.1387 -12.3416,3.12589 -19.25308,4.11307c0,6.74715 0.16433,24.35453 0.16433,32.74739h6.08863z" style="fill: rgb(255, 255, 255);"></path><path d="M322.30999,188.84299c-2.1387,-3.94993 -6.08863,-8.72152 -10.36723,-11.02575l-0.16433,0.16433h-8.72152c4.44293,2.30423 8.55719,5.75997 13.00012,10.69708c3.78441,4.2774 6.4173,10.03737 8.063,15.13882v-11.02575c-0.493,-1.31585 -1.15152,-2.63289 -1.81004,-3.94874z" style="fill: rgb(255, 255, 255);"></path><path d="M316.38569,177.98157c3.29141,2.63289 6.08863,6.25297 7.73434,9.21571v-9.21571z" style="fill: rgb(255, 255, 255);"></path><path d="M346.22749,235.00013c0,-9.65869 -1.86601,-18.9006 -5.59802,-27.72573c-3.18662,-7.53388 -7.53269,-14.30565 -13.03822,-20.31529v8.55838c3.2152,4.26788 5.88024,8.89895 7.99155,13.89204c3.44383,8.1416 5.16575,16.67259 5.16575,25.5906c0,8.9192 -1.72192,17.45019 -5.16575,25.59179c-1.92912,4.56082 -4.31908,8.81917 -7.16989,12.77624v2.36019l-0.07859,0.73592l-0.2334,0.70258l-0.10836,1.82909l-0.02382,3.6296c5.32651,-5.90525 9.54676,-12.53808 12.66074,-19.8997c3.73201,-8.82393 5.59802,-18.06584 5.59802,-27.72573z" style="fill: rgb(255, 255, 255);"></path><path d="M203.77278,235.00013c0,9.65988 1.86601,18.90179 5.59802,27.72573c3.12311,7.38384 7.35963,14.03533 12.70956,19.95447v-8.63697c-3.06873,-4.14522 -5.62302,-8.62983 -7.66289,-13.45144c-3.44383,-8.1416 -5.16575,-16.67259 -5.16575,-25.59179c0,-8.91801 1.72192,-17.449 5.16575,-25.5906c2.03986,-4.82161 4.59416,-9.30621 7.66289,-13.45144v-8.63697c-5.35033,5.91954 -9.58605,12.57023 -12.70956,19.95328c-3.73201,8.82473 -5.59802,18.06664 -5.59802,27.72573z" style="fill: rgb(255, 255, 255);"></path><path d="M260.43648,203.48762l0.32986,-0.32866c3.94874,0.32866 20.73327,2.30423 20.73327,13.16445c0,2.13989 -0.82285,3.94993 -2.46737,5.59444c-4.44293,4.2786 -13.65864,5.26697 -18.10157,5.26697v4.60726h0.493c1.15271,0 2.30423,0 3.45574,-0.16433c2.79841,-0.32986 5.59564,-0.82285 8.06419,-1.48137c6.58163,-1.81004 10.86022,-4.60726 12.67026,-8.39286c0.65852,-1.31585 0.98718,-2.96155 0.98718,-4.60726c0,-14.64582 -17.44305,-17.77171 -26.16457,-18.43023z" style="fill: rgb(255, 255, 255);"></path><path d="M277.22219,220.27334c1.15152,-1.15271 1.64451,-2.30423 1.64451,-3.7856h0.49419c0,-8.22733 -14.31597,-10.2017 -18.2659,-10.53156v5.75997c6.4173,0 10.2029,0.65852 11.8486,2.30303c0.493,0.49419 0.82285,1.15271 0.82285,1.97556c0,0.65733 -0.32986,1.31585 -0.82285,1.81004c-1.81004,1.81004 -6.41849,1.97437 -11.19008,1.97437h-0.98718v5.10145c5.10145,0 13.00012,-1.31704 16.45586,-4.60726z" style="fill: rgb(255, 255, 255);"></path><path d="M270.47504,216.3234l0.16433,-0.16433v-0.16433l-0.16433,-0.16433c-0.49419,-0.49419 -2.46856,-1.64571 -10.03856,-1.64571v3.45574c2.63289,0 8.72152,0 10.03856,-1.31704z" style="fill: rgb(255, 255, 255);"></path><path d="M324.61421,229.65219c-2.46856,6.91149 -6.74715,12.67145 -13.49431,18.59575v0.16433c-12.01174,10.53156 -26.16457,16.94886 -39.98635,18.2659v26.16338h5.92311l-0.32866,-21.39179l1.48137,0.16433c0.493,0 1.15152,-0.16433 1.81004,-0.32866c10.86022,-2.79722 23.20182,-6.08863 32.08768,-13.9873c5.10145,-4.44293 8.88705,-10.2029 12.50712,-15.96167z" style="fill: rgb(255, 255, 255);"></path><path d="M324.94288,246.10805c-3.12708,4.77278 -6.4173,9.38004 -10.69589,13.16445l0.16433,-0.493c-9.38004,8.39167 -21.88597,11.68308 -32.91172,14.64463c-0.32866,0.16433 -0.82285,0.32986 -1.31585,0.32986l0.32866,18.7589h6.58282l0.65852,-13.32878h1.15152c1.48137,0 2.96155,-0.65852 4.44293,-1.31704l1.48137,-0.493c1.31585,-0.49419 2.79722,-0.82285 4.11307,-1.15271l1.48137,-0.493c9.54438,-2.79722 18.10157,-8.39286 24.51886,-15.96167z" style="fill: rgb(255, 255, 255);"></path><path d="M301.08254,277.70273l-1.48137,0.49419h-0.16433c-1.31704,0.32866 -2.63289,0.65852 -3.94993,1.15152l-1.48018,0.49419c-1.31704,0.493 -2.63289,1.15152 -4.11426,1.48018l-0.49419,11.02575h6.91149v-5.75997l8.72152,-1.15152c1.64571,-0.16433 3.29141,-0.32866 4.93712,-0.65852c5.10145,-1.31585 10.03737,-4.2786 14.97449,-9.05019v-12.50593c-6.58163,6.74596 -14.81016,11.84741 -23.86034,14.4803z" style="fill: rgb(255, 255, 255);"></path><path d="M309.96839,287.57577c-1.64571,0.49419 -3.45574,0.65852 -5.10145,0.82285l-6.58163,0.82285v3.62007h26.16338v-13.32878c-4.77159,4.2786 -9.54318,6.91149 -14.4803,8.063z" style="fill: rgb(255, 255, 255);"></path><path d="M302.72586,300.62947c-8.82393,3.73201 -18.06584,5.59802 -27.72573,5.59802c-9.65988,0 -18.90179,-1.86601 -27.72573,-5.59802c-3.27355,-1.38492 -6.40301,-2.98775 -9.38957,-4.81089h10.80307h1.28489c7.9725,3.28665 16.31415,4.92997 25.02734,4.92997c8.26544,0 16.19626,-1.47899 23.79485,-4.43578h12.49879c-2.73768,1.61951 -5.59325,3.05801 -8.56791,4.3167z" style="fill: rgb(255, 255, 255);"></path></g></g><g data-paper-data="{&quot;isPrimaryText&quot;:true}" fill-rule="nonzero" style="fill: rgb(255, 255, 255);"><path d="M178.07138,203.6814c-3.74979,-0.66677 -7.70348,1.23317 -8.62229,5.139c-0.52797,2.2444 -2.16673,9.21076 -2.16673,9.21076l18.94619,4.45689l1.09022,-4.63453l-4.02242,-0.94623l0.9188,-3.90583c0.93252,-3.96413 -1.41836,-7.96237 -5.26934,-9.11436c-0.14574,-0.03428 -0.29148,-0.06857 -0.43722,-0.10285c-0.14574,-0.03428 -0.29148,-0.06857 -0.43722,-0.10285zM179.56691,211.96953v0l-0.90509,3.84753l-5.65471,-1.33021l0.9188,-3.90583c0.39256,-1.53799 1.9339,-2.46736 3.47875,-2.10395c1.57399,0.37026 2.53251,1.91847 2.16225,3.49246z" data-paper-data="{&quot;glyphName&quot;:&quot;P&quot;,&quot;glyphIndex&quot;:0,&quot;firstGlyphOfWord&quot;:true,&quot;word&quot;:1}" style="fill: rgb(255, 255, 255);"></path><path d="M183.69413,175.9861l8.25729,4.80189c2.64026,1.5354 3.75667,4.67862 2.26642,7.24122c-1.5053,2.58849 -4.78933,3.1727 -7.42959,1.6373l-8.25729,-4.80189l-2.39342,4.1157l8.25729,4.80189c5.40995,3.14607 11.20568,1.45923 13.99048,-3.32948c2.76974,-4.76282 1.36947,-10.63438 -4.04047,-13.78045l-8.25729,-4.80189z" data-paper-data="{&quot;glyphName&quot;:&quot;U&quot;,&quot;glyphIndex&quot;:1,&quot;word&quot;:1}" style="fill: rgb(255, 255, 255);"></path><path d="M222.11767,162.60119l-7.10057,-1.53672c0.80661,-2.20129 0.52389,-4.63555 -1.34758,-6.73796c-2.82712,-3.17598 -7.33338,-3.73478 -10.30807,-1.08684c-1.72219,1.53302 -7.06767,6.29134 -7.06767,6.29134l12.94104,14.53793l3.5562,-3.16558l-3.22531,-3.6233l2.54973,-2.26966l5.61847,1.493zM203.03547,159.944l2.97468,-2.64794c1.1854,-1.05519 3.00324,-0.94955 4.05843,0.23585c1.0751,1.20777 0.78782,2.86659 -0.39758,3.92178v0l-2.95232,2.62803z" data-paper-data="{&quot;glyphName&quot;:&quot;R&quot;,&quot;glyphIndex&quot;:2,&quot;word&quot;:1}" style="fill: rgb(255, 255, 255);"></path><path d="M240.86874,139.02035c-1.75197,-3.38173 -5.66512,-5.36385 -9.32402,-3.71698c-2.1025,0.94633 -8.62845,3.88365 -8.62845,3.88365l7.98852,17.74839l4.34153,-1.95412l-1.69602,-3.76812l3.6589,-1.64686c3.71351,-1.67144 5.45666,-5.96959 4.02824,-9.72681c-0.06145,-0.13653 -0.1229,-0.27305 -0.18435,-0.40958c-0.06145,-0.13653 -0.1229,-0.27305 -0.18435,-0.40958zM235.20048,145.24937v0l-3.60429,1.62228l-2.38427,-5.29721l3.6589,-1.64686c1.45947,-0.62407 3.13476,0.03388 3.78613,1.48105c0.66366,1.47448 0.01801,3.17708 -1.45647,3.84074z" data-paper-data="{&quot;glyphName&quot;:&quot;P&quot;,&quot;glyphIndex&quot;:3,&quot;word&quot;:1}" style="fill: rgb(255, 255, 255);"></path><path d="M259.10925,142.3409l-1.90769,-14.66862l-4.63219,0.60243l2.51012,19.30081l16.71747,-2.17415l-0.60243,-4.63219z" data-paper-data="{&quot;glyphName&quot;:&quot;L&quot;,&quot;glyphIndex&quot;:4,&quot;word&quot;:1}" style="fill: rgb(255, 255, 255);"></path><path d="M299.02173,132.90502l0.66999,-4.13822l-14.45421,-2.34019v0l-3.11068,19.21316v0l14.45421,2.34019l0.66521,-4.10866l-9.84305,-1.59363l0.55514,-3.42881l7.77394,1.25863l0.66521,-4.10866l-7.77394,-1.25863l0.55514,-3.42881z" data-paper-data="{&quot;glyphName&quot;:&quot;E&quot;,&quot;glyphIndex&quot;:5,&quot;lastGlyphOfWord&quot;:true,&quot;word&quot;:1}" style="fill: rgb(255, 255, 255);"></path><path d="M329.68473,165.1264c3.6564,2.85868 8.50388,3.07574 10.56951,0.4337c3.17221,-4.05742 -0.45587,-7.73016 -2.289,-9.80951c-0.73857,-0.80549 -3.12112,-2.66824 -2.14364,-3.9185c0.8115,-1.03795 2.56572,-0.99676 3.91033,0.0545c2.00512,1.56766 2.01498,2.86768 1.71989,3.24511l3.79794,2.96934c1.60455,-2.0523 1.19669,-5.90602 -3.12022,-9.28111c-3.53845,-2.76647 -8.17363,-2.81754 -10.29459,-0.10473c-2.2685,2.90153 0.1475,6.08274 1.66367,7.83826c0.84837,1.00536 4.29975,3.93181 2.76897,5.88975c-0.73772,0.94359 -2.74114,0.78359 -4.2037,-0.35988c-2.71281,-2.12096 -1.25495,-4.32595 -1.2365,-4.34954l-3.98665,-3.11688c-1.62299,2.07589 -1.85035,6.83931 2.84399,10.50949z" data-paper-data="{&quot;glyphName&quot;:&quot;S&quot;,&quot;glyphIndex&quot;:6,&quot;firstGlyphOfWord&quot;:true,&quot;word&quot;:2}" style="fill: rgb(255, 255, 255);"></path><path d="M351.17342,188.5627l3.63352,5.53077l4.0792,-13.75056l11.90826,2.6383l-3.25537,-4.95517l-10.93807,-2.41583l6.53181,-4.29117l-2.56484,-3.90407l-16.26696,10.68681l2.56484,3.90407l4.57978,-3.00875l2.7869,0.53372z" data-paper-data="{&quot;glyphName&quot;:&quot;K&quot;,&quot;glyphIndex&quot;:7,&quot;word&quot;:2}" style="fill: rgb(255, 255, 255);"></path><path d="M381.17498,212.19399l-8.18423,-3.27572l5.46621,-6.93895l-1.49376,-5.61372l-8.77047,10.82378l-7.92866,2.10974l1.49376,5.61372l7.92866,-2.10974l12.98224,5.00461z" data-paper-data="{&quot;glyphName&quot;:&quot;Y&quot;,&quot;glyphIndex&quot;:8,&quot;lastGlyphOfWord&quot;:true,&quot;word&quot;:2}" style="fill: rgb(255, 255, 255);"></path></g><g data-paper-data="{&quot;isMirroredPrimaryText&quot;:true}" fill-rule="nonzero" style="fill: rgb(255, 255, 255);"><path d="M182.44358,265.29036c3.6538,-1.07484 6.34585,-4.53813 5.42704,-8.44396c-0.52797,-2.2444 -2.16673,-9.21076 -2.16673,-9.21076l-18.94619,4.45689l1.09022,4.63453l4.02242,-0.94623l0.9188,3.90583c0.93252,3.96413 4.81931,6.49503 8.77999,5.80941c0.14574,-0.03428 0.29148,-0.06857 0.43722,-0.10285c0.14574,-0.03428 0.29148,-0.06857 0.43722,-0.10285zM177.40996,258.53813v0l-0.90509,-3.84753l5.65471,-1.33021l0.9188,3.90583c0.33426,1.5517 -0.63112,3.07076 -2.17596,3.43416c-1.57399,0.37026 -3.12219,-0.58826 -3.49246,-2.16225z" data-paper-data="{&quot;glyphName&quot;:&quot;P&quot;,&quot;glyphIndex&quot;:0,&quot;firstGlyphOfWord&quot;:true,&quot;word&quot;:1}" style="fill: rgb(255, 255, 255);"></path><path d="M200.05339,284.5007l-8.25729,4.80189c-2.64026,1.5354 -5.92429,0.95119 -7.41453,-1.61142c-1.5053,-2.58849 -0.38889,-5.73171 2.25137,-7.26711l8.25729,-4.80189l-2.39342,-4.1157l-8.25729,4.80189c-5.40995,3.14607 -6.81022,9.01763 -4.02542,13.80633c2.76974,4.76282 8.56548,6.44966 13.97543,3.30359l8.25729,-4.80189z" data-paper-data="{&quot;glyphName&quot;:&quot;U&quot;,&quot;glyphIndex&quot;:1,&quot;word&quot;:1}" style="fill: rgb(255, 255, 255);"></path><path d="M208.81826,322.3396l0.70388,-7.23077c2.2799,0.5462 4.66503,-0.01659 6.5365,-2.119c2.82712,-3.17598 2.86018,-7.71664 -0.11451,-10.36457c-1.72219,-1.53302 -7.06767,-6.29134 -7.06767,-6.29134l-12.94104,14.53793l3.5562,3.16558l3.22531,-3.6233l2.54973,2.26966l-0.83214,5.75359zM209.24717,303.07806l2.97468,2.64794c1.1854,1.05519 1.29104,2.87303 0.23585,4.05843c-1.0751,1.20777 -2.75603,1.11457 -3.94143,0.05938v0l-2.95232,-2.62803z" data-paper-data="{&quot;glyphName&quot;:&quot;R&quot;,&quot;glyphIndex&quot;:2,&quot;word&quot;:1}" style="fill: rgb(255, 255, 255);"></path><path d="M242.71225,326.88413c1.3697,-3.55379 0.25868,-7.79727 -3.40022,-9.44414c-2.1025,-0.94633 -8.62845,-3.88365 -8.62845,-3.88365l-7.98852,17.74839l4.34153,1.95412l1.69602,-3.76812l3.6589,1.64686c3.71351,1.67144 8.08673,0.12627 9.95204,-3.43431c0.06145,-0.13653 0.1229,-0.27305 0.18435,-0.40958c0.06145,-0.13653 0.1229,-0.27305 0.18435,-0.40958zM234.29101,326.77149v0l-3.60429,-1.62228l2.38427,-5.29721l3.6589,1.64686c1.43489,0.67868 2.05323,2.36898 1.40186,3.81616c-0.66366,1.47448 -2.36626,2.12014 -3.84074,1.45647z" data-paper-data="{&quot;glyphName&quot;:&quot;P&quot;,&quot;glyphIndex&quot;:3,&quot;word&quot;:1}" style="fill: rgb(255, 255, 255);"></path><path d="M257.73448,338.23027l1.90769,-14.66862l-4.63219,-0.60243l-2.51012,19.30081l16.71747,2.17415l0.60243,-4.63219z" data-paper-data="{&quot;glyphName&quot;:&quot;L&quot;,&quot;glyphIndex&quot;:4,&quot;word&quot;:1}" style="fill: rgb(255, 255, 255);"></path><path d="M297.33717,326.69058l-0.66999,-4.13822l-14.45421,2.34019v0l3.11068,19.21316v0l14.45421,-2.34019l-0.66521,-4.10866l-9.84305,1.59363l-0.55514,-3.42881l7.77394,-1.25863l-0.66521,-4.10866l-7.77394,1.25863l-0.55514,-3.42881z" data-paper-data="{&quot;glyphName&quot;:&quot;E&quot;,&quot;glyphIndex&quot;:5,&quot;lastGlyphOfWord&quot;:true,&quot;word&quot;:1}" style="fill: rgb(255, 255, 255);"></path><path d="M342.63179,321.43381c3.6564,-2.85868 5.03658,-7.5106 2.97095,-10.15264c-3.17221,-4.05742 -7.61179,-1.42262 -10.07199,-0.14532c-0.95989,0.52241 -3.34244,2.38517 -4.31993,1.13492c-0.8115,-1.03795 -0.34829,-2.73041 0.99632,-3.78167c2.00512,-1.56766 3.26911,-1.26358 3.5642,-0.88614l3.79794,-2.96934c-1.60455,-2.0523 -5.44283,-2.58626 -9.75974,0.78883c-3.53845,2.76647 -4.70633,7.2524 -2.58537,9.96521c2.2685,2.90153 5.93863,1.32442 8.00809,0.27659c1.18034,-0.58075 4.85304,-3.22412 6.38382,-1.26618c0.73772,0.94359 0.0991,2.84922 -1.36346,3.99269c-2.71281,2.12096 -4.50093,0.17417 -4.51937,0.15058l-3.98665,3.11688c1.62299,2.07589 6.19085,3.44578 10.88519,-0.2244z" data-paper-data="{&quot;glyphName&quot;:&quot;S&quot;,&quot;glyphIndex&quot;:6,&quot;firstGlyphOfWord&quot;:true,&quot;word&quot;:2}" style="fill: rgb(255, 255, 255);"></path><path d="M367.89085,292.42033l3.63352,-5.53077l-14.2399,1.71557l-2.30657,-11.97694l-3.25537,4.95517l2.12556,10.99816l-6.53181,-4.29117l-2.56484,3.90407l16.26696,10.68681l2.56484,-3.90407l-4.57978,-3.00875l-0.61665,-2.76973z" data-paper-data="{&quot;glyphName&quot;:&quot;K&quot;,&quot;glyphIndex&quot;:7,&quot;word&quot;:2}" style="fill: rgb(255, 255, 255);"></path><path d="M362.88697,252.94002l5.47391,6.91001l-8.19193,3.30465l-1.49376,5.61372l12.98994,-5.03355l7.92866,2.10974l1.49376,-5.61372l-7.92866,-2.10974l-8.77817,-10.79484z" data-paper-data="{&quot;glyphName&quot;:&quot;Y&quot;,&quot;glyphIndex&quot;:8,&quot;lastGlyphOfWord&quot;:true,&quot;word&quot;:2}" style="fill: rgb(255, 255, 255);"></path></g><g data-paper-data="{&quot;isContainerElementsWrapper&quot;:true}" fill-rule="evenodd" style="fill: rgb(255, 255, 255);"><path d="M183.78326,143.78326c-11.90079,11.9008 -21.11526,25.56826 -27.64343,41.00238c-6.75989,15.98223 -10.13984,32.72039 -10.13984,50.21449c0,17.49403 3.37995,34.23216 10.13984,50.2144c6.52817,15.43437 15.74264,29.10201 27.64343,41.00292c11.90041,11.90031 25.56787,21.11476 41.00238,27.64334c15.98288,6.75948 32.72105,10.13921 50.21449,10.13921c17.49403,0 34.23216,-3.37974 50.2144,-10.13921c15.43437,-6.52858 29.10201,-15.74303 41.00292,-27.64334c11.9015,-11.9015 21.11594,-25.56914 27.64334,-41.00292c6.75948,-15.98223 10.13921,-32.72036 10.13921,-50.2144c0,-17.49427 -3.37974,-34.23243 -10.13921,-50.21449c-6.52799,-15.43403 -15.74243,-29.10149 -27.64334,-41.00238c-11.9009,-11.90079 -25.56854,-21.11526 -41.00292,-27.64343c-15.98223,-6.75989 -32.72036,-10.13984 -50.2144,-10.13984c-17.49391,0 -34.23208,3.37995 -50.21449,10.13984c-15.43402,6.52805 -29.10148,15.74252 -41.00238,27.64343zM147.4071,235.00013c0,-17.30368 3.34291,-33.85914 10.02872,-49.66639c6.45676,-15.26545 15.57092,-28.78393 27.34249,-40.55543c11.77139,-11.77145 25.28987,-20.88561 40.55543,-27.34249c15.80707,-6.68582 32.36254,-10.02872 49.66639,-10.02872c17.30409,0 33.85941,3.34291 49.66595,10.02872c15.2658,6.45688 28.78446,15.57104 40.55597,27.34249c11.77091,11.77095 20.88505,25.28943 27.3424,40.55543c6.68587,15.80772 10.02881,32.36319 10.02881,49.66639c0,17.30409 -3.34294,33.85941 -10.02881,49.66595c-6.45676,15.2664 -15.57089,28.78505 -27.3424,40.55597c-11.7721,11.7721 -25.29076,20.88624 -40.55597,27.3424c-15.80654,6.68587 -32.36185,10.02881 -49.66595,10.02881c-17.30403,0 -33.8595,-3.34294 -49.66639,-10.02881c-15.26539,-6.45676 -28.78387,-15.57089 -40.55543,-27.3424c-11.77139,-11.77151 -20.88555,-25.29016 -27.34249,-40.55597c-6.68582,-15.80713 -10.02872,-32.36245 -10.02872,-49.66595z" data-paper-data="{&quot;isAdditionalOutlinePath&quot;:true}" style="fill: rgb(255, 255, 255);"></path><path d="M186.75193,146.75193c-11.51491,11.51496 -20.43002,24.73802 -26.74534,39.66919c-6.53879,15.4596 -9.80819,31.65261 -9.80819,48.57902c0,16.92599 3.2694,33.11894 9.80819,48.57884c6.31537,14.93163 15.23052,28.15469 26.74543,39.66919c11.51583,11.51568 24.73887,20.43097 39.6691,26.74587c15.46049,6.53867 31.6535,9.80801 48.57902,9.80801c16.92599,0 33.11894,-3.26934 48.57884,-9.80801c14.93222,-6.31549 28.15528,-15.23078 39.66919,-26.74587c11.51568,-11.51568 20.43097,-24.73875 26.74587,-39.66919c6.53867,-15.46049 9.80801,-31.65344 9.80801,-48.57884c0,-16.92653 -3.26934,-33.11953 -9.80801,-48.57902c-6.31609,-14.93203 -15.23138,-28.15509 -26.74587,-39.66919c-11.51509,-11.51485 -24.73815,-20.42996 -39.66919,-26.74534c-15.4593,-6.53879 -31.65225,-9.80819 -48.57884,-9.80819c-16.92641,0 -33.11942,3.2694 -48.57902,9.80819c-14.93119,6.31531 -28.15425,15.23043 -39.66919,26.74534zM152.66092,235.00013c0,-16.59348 3.20458,-32.46674 9.61373,-47.61976c6.19055,-14.63627 14.93009,-27.59864 26.21861,-38.88711c11.28849,-11.28853 24.25086,-20.02806 38.88711,-26.21861c15.15303,-6.40916 31.02628,-9.61373 47.61976,-9.61373c16.5936,0 32.46662,3.20458 47.61905,9.61373c14.63663,6.19043 27.59912,14.92997 38.88747,26.21861c11.28894,11.28789 20.02854,24.25026 26.21879,38.88711c6.40928,15.15285 9.61391,31.0261 9.61391,47.61976c0,16.59301 -3.20464,32.46602 -9.61391,47.61905c-6.18906,14.63544 -14.92866,27.59793 -26.21879,38.88747c-11.28716,11.28835 -24.24965,20.02795 -38.88747,26.21879c-15.15243,6.40928 -31.02545,9.61391 -47.61905,9.61391c-16.59259,0 -32.46584,-3.20464 -47.61976,-9.61391c-14.63535,-6.18966 -27.59775,-14.92925 -38.8872,-26.21879c-11.28859,-11.28835 -20.02809,-24.25084 -26.21852,-38.88747c-6.40916,-15.15243 -9.61373,-31.02545 -9.61373,-47.61905z" data-paper-data="{&quot;isBaseLogoContainer&quot;:true}" style="fill: rgb(255, 255, 255);"></path></g></g></g></svg>